<?xml version="1.0" encoding="utf-8"?>
<!-- Generator: Adobe Illustrator 16.0.1, SVG Export Plug-In . SVG Version: 6.00 Build 0)  -->
<!DOCTYPE svg PUBLIC "-//W3C//DTD SVG 1.1//EN" "http://www.w3.org/Graphics/SVG/1.1/DTD/svg11.dtd">
<svg version="1.1" id="Слой_1" xmlns="http://www.w3.org/2000/svg" xmlns:xlink="http://www.w3.org/1999/xlink" x="0px" y="0px"
	 width="288.309px" height="349.246px" viewBox="0 0 288.309 349.246" enable-background="new 0 0 288.309 349.246"
	 xml:space="preserve">
<g>
	<defs>
		<rect id="SVGID_1_" width="288.309" height="349.246"/>
	</defs>
	<clipPath id="SVGID_2_">
		<use xlink:href="#SVGID_1_"  overflow="visible"/>
	</clipPath>
	<path clip-path="url(#SVGID_2_)" fill="#99CA3C" d="M238.055,191.239l-44.493-13.485c-1.077-3.254-3.46-6.062-6.792-8.445
		c3.669-4.074,6.762-8.199,9.117-11.613c5.582-8.098,10.23-16.821,13.449-25.235c1.586-3.547,2.938-7.109,4.031-10.605
		c4.332-3.629,6.883-9.055,6.883-14.742V93.176c0-4-1.258-7.91-3.574-11.152V62.407C216.676,27.993,188.68,0,154.27,0h-20.23
		c-34.41,0-62.406,27.993-62.406,62.407v19.621c-2.317,3.242-3.571,7.152-3.571,11.148v13.938c0,5.683,2.547,11.101,6.879,14.738
		c1.094,3.492,2.45,7.059,4.032,10.617c3.222,8.41,7.867,17.129,13.449,25.223c2.355,3.414,5.453,7.539,9.121,11.617
		c-3.336,2.379-5.719,5.191-6.793,8.445l-44.496,13.485C18.93,200.243,0.156,335.594,0.156,335.594
		C0.062,336.196,0,336.805,0,337.434c0,6.523,5.289,11.813,11.812,11.813H276.5c6.523,0,11.809-5.289,11.809-11.813
		C288.309,331.774,269.383,200.243,238.055,191.239 M133.363,201.93c0.758,0.841,1.125,1.961,1.008,3.091l-2.191,21.258
		c-0.168,1.636-1.321,3.004-2.907,3.444c-0.355,0.099-0.714,0.146-1.07,0.146c-1.238,0-2.426-0.571-3.195-1.59l-11.242-14.91
		c-0.524-0.696-0.805-1.539-0.805-2.411l0.016-23.902c0-1.401,0.734-2.702,1.937-3.426c1.199-0.722,2.691-0.765,3.93-0.108
		c3.273,1.726,6.543,2.891,9.715,3.452c1.906,0.341,3.3,2,3.3,3.938v9.976C132.426,201.11,132.945,201.465,133.363,201.93
		 M153.938,205.021c-0.117-1.13,0.25-2.25,1.008-3.091c0.418-0.465,0.938-0.819,1.508-1.043v-9.976c0-1.938,1.391-3.598,3.301-3.938
		c3.168-0.562,6.435-1.723,9.707-3.452c1.238-0.652,2.73-0.613,3.934,0.108c1.199,0.728,1.934,2.024,1.934,3.426l0.004,23.906
		c0,0.868-0.285,1.711-0.805,2.407l-11.227,14.897c-0.77,1.021-1.961,1.595-3.195,1.595c-0.355,0-0.715-0.047-1.07-0.149
		c-1.586-0.44-2.738-1.804-2.906-3.44L153.938,205.021z M95.359,112.133l-0.214-1.656l-3.883-2.523
		c-1.137-0.739-1.821-2-1.821-3.356v-6.586c0-2.207,1.793-4,4-4h1.633v-7.133c0-1.515,0.86-2.898,2.215-3.578
		c5.508-2.75,16.438-7.359,27.75-7.359c9.027,0,16.516,3,22.25,8.926c7.148,7.386,15.383,11.128,24.484,11.128
		c5.152,0,10.473-1.214,15.824-3.613c1.238-0.554,2.672-0.441,3.813,0.293c0.531,0.348,0.965,0.805,1.278,1.336h2.179
		c2.211,0,4,1.793,4,4v6.586c0,1.356-0.684,2.617-1.82,3.356l-3.879,2.523l-0.215,1.644c-1.265,9.567-6.633,21.958-14.355,33.153
		c-9.781,14.187-18.949,20.535-23.695,20.535H133.41c-4.746,0-13.914-6.352-23.695-20.539
		C101.988,134.079,96.625,121.692,95.359,112.133"/>
</g>
</svg>
