<?xml version="1.0" encoding="utf-8"?>
<!-- Generator: Adobe Illustrator 16.0.1, SVG Export Plug-In . SVG Version: 6.00 Build 0)  -->
<!DOCTYPE svg PUBLIC "-//W3C//DTD SVG 1.1//EN" "http://www.w3.org/Graphics/SVG/1.1/DTD/svg11.dtd">
<svg version="1.1" id="Слой_1" xmlns="http://www.w3.org/2000/svg" xmlns:xlink="http://www.w3.org/1999/xlink" x="0px" y="0px"
	 width="319.355px" height="259.406px" viewBox="0 0 319.355 259.406" enable-background="new 0 0 319.355 259.406"
	 xml:space="preserve">
<g>
	<defs>
		<rect id="SVGID_1_" width="319.355" height="259.406"/>
	</defs>
	<clipPath id="SVGID_2_">
		<use xlink:href="#SVGID_1_"  overflow="visible"/>
	</clipPath>
	<path clip-path="url(#SVGID_2_)" fill="#99CA3C" d="M296.335,31.516c-12.778,0-23.089,11.236-23.089,25.093
		c0,9.026,4.351,16.854,10.911,21.273c-13.926,20.811-33.452,45.03-53.595,51.984c-26.565,9.232-51.316-47.427-63.495-81.084
		c9.027-3.426,15.588-12.727,15.588-23.689C182.655,11.236,172.344,0,159.635,0s-23.003,11.236-23.003,25.093
		c0,10.962,6.543,20.263,15.586,23.689c-12.178,33.657-36.877,90.316-63.425,81.084c-20.144-6.954-39.755-31.173-53.594-51.984
		c6.491-4.419,10.893-12.247,10.893-21.273c0-13.857-10.362-25.093-23.072-25.093C10.311,31.516,0,42.752,0,56.609
		c0,13.84,10.311,25.092,23.02,25.092c0.257,0,0.463-0.068,0.668-0.068l31.105,144.511h209.684l31.122-144.511
		c0.256,0,0.462,0.068,0.736,0.068c12.64,0,23.02-11.252,23.02-25.092C319.286,42.752,308.975,31.516,296.335,31.516"/>
	<rect x="55.872" y="231.23" clip-path="url(#SVGID_2_)" fill="#99CA3C" width="207.542" height="28.176"/>
</g>
</svg>
