<?xml version="1.0" encoding="utf-8"?>
<!-- Generator: Adobe Illustrator 16.0.1, SVG Export Plug-In . SVG Version: 6.00 Build 0)  -->
<!DOCTYPE svg PUBLIC "-//W3C//DTD SVG 1.1//EN" "http://www.w3.org/Graphics/SVG/1.1/DTD/svg11.dtd">
<svg version="1.1" id="Слой_1" xmlns="http://www.w3.org/2000/svg" xmlns:xlink="http://www.w3.org/1999/xlink" x="0px" y="0px"
	 width="466.451px" height="612.002px" viewBox="0 0 466.451 612.002" enable-background="new 0 0 466.451 612.002"
	 xml:space="preserve">
<g>
	<defs>
		<rect id="SVGID_1_" width="466.451" height="612.002"/>
	</defs>
	<clipPath id="SVGID_2_">
		<use xlink:href="#SVGID_1_"  overflow="visible"/>
	</clipPath>
	<path clip-path="url(#SVGID_2_)" fill="#99CC33" d="M395.734,556.238v-47.125H70.72v94.883c0,4.906,4.375,8.66,9.226,7.91
		l309.008-47.758C392.855,563.546,395.734,560.188,395.734,556.238"/>
	<path clip-path="url(#SVGID_2_)" fill="#99CC33" d="M233.228,72.589c-6.628,0-12,5.375-12,12v19.571L22.149,206.906
		c-17.05,8.797-25.464,27.238-20.937,45.883c4.527,18.644,20.461,31.168,39.648,31.168h29.86v201.156h325.016V283.957h29.859
		c19.188,0,35.117-12.524,39.645-31.168c4.527-18.645-3.884-37.086-20.934-45.883L245.228,104.16v-9.078
		c20.844-5.352,36.293-24.297,36.293-46.786C281.521,21.664,259.855,0,233.228,0c-26.628,0-48.297,21.664-48.297,48.296
		c0,6.625,5.375,12,12,12c6.629,0,12-5.375,12-12c0-13.398,10.898-24.296,24.297-24.296c13.395,0,24.293,10.898,24.293,24.296
		C257.521,61.691,246.622,72.589,233.228,72.589 M441.919,247.125c-1.508,6.203-6.586,12.832-16.324,12.832H395.45
		c-1.927-13.477-13.512-23.844-27.523-23.844H98.524c-14.007,0-25.593,10.367-27.519,23.844H40.86
		c-9.738,0-14.816-6.629-16.324-12.832c-1.508-6.207-0.035-14.426,8.621-18.895l200.071-103.254l200.07,103.254
		C441.95,232.699,443.427,240.918,441.919,247.125"/>
</g>
</svg>
