<?xml version="1.0" encoding="utf-8"?>
<!-- Generator: Adobe Illustrator 16.0.1, SVG Export Plug-In . SVG Version: 6.00 Build 0)  -->
<!DOCTYPE svg PUBLIC "-//W3C//DTD SVG 1.1//EN" "http://www.w3.org/Graphics/SVG/1.1/DTD/svg11.dtd">
<svg version="1.1" id="Слой_1" xmlns="http://www.w3.org/2000/svg" xmlns:xlink="http://www.w3.org/1999/xlink" x="0px" y="0px"
	 width="332.881px" height="394px" viewBox="0 0 332.881 394" enable-background="new 0 0 332.881 394" xml:space="preserve">
<g>
	<defs>
		<rect id="SVGID_1_" width="332.881" height="394"/>
	</defs>
	<clipPath id="SVGID_2_">
		<use xlink:href="#SVGID_1_"  overflow="visible"/>
	</clipPath>
	<path clip-path="url(#SVGID_2_)" fill="#99CA3C" d="M54.477,78.063C15.613,89.141-7.492,129.004,2.211,168.227l5.215,21.078
		c4.484,18.128,6.75,36.742,6.75,55.417v87.47c0,34.133,27.679,61.808,61.82,61.808c19.844,0,38.473-9.515,50.094-25.597
		c11.621-16.075,14.816-36.754,8.598-55.59l-6.215-18.828c-7.153-21.646-7.137-45.024,0.031-66.664l17.742-53.504
		c8.742-26.387,2.184-55.442-17.047-75.512C109.957,78.239,81.203,70.446,54.477,78.063 M118.551,283.59
		c-1.106,4.633-5.778,7.457-10.379,6.406c-4.633-1.102-7.504-5.746-6.41-10.378c13.437-56.739-9.469-107.985-19.321-126.45
		c-50.613,35.571-43.109,130.996-43.027,132c0.402,4.746-3.113,8.922-7.855,9.325c-0.25,0.019-0.497,0.035-0.75,0.035
		c-4.426,0-8.192-3.399-8.579-7.888c-0.402-4.741-9.128-116.5,59.192-153.063c3.949-2.085,8.832-0.847,11.281,2.879
		C94.523,139.235,137.062,205.379,118.551,283.59"/>
	<path clip-path="url(#SVGID_2_)" fill="#99CA3C" d="M331.555,241.036l-17.938-85.618c-3.824-18.281-5.418-36.945-4.742-55.609
		l0.781-21.715c1.453-40.371-29.332-74.648-69.645-77.523c-27.727-1.973-54.27,11.535-68.988,35.125
		c-14.708,23.582-15.168,53.367-1.203,77.406l28.332,48.734c11.457,19.707,16.258,42.582,13.703,65.235l-2.23,19.694
		c-2.219,19.72,5.148,39.298,19.816,52.656c14.672,13.348,34.867,18.853,54.285,14.785
		C317.137,307.207,338.555,274.45,331.555,241.036 M303.945,204.102c-4.453,0.462-8.566-2.637-9.117-7.128
		c-0.117-0.949-11.824-91.086-65.668-114.266c-5.559,19.075-16.867,71.149,6.651,121.246c1.923,4.094,0.165,8.973-3.929,10.887
		c-1.129,0.531-2.305,0.781-3.469,0.781c-3.078,0-6.023-1.742-7.414-4.707c-32.43-69.066-5.777-138.8-4.621-141.734
		c1.551-3.941,5.887-6.031,9.918-4.871c70.586,20.676,84.234,126.199,84.777,130.676
		C311.621,199.469,308.43,203.551,303.945,204.102"/>
</g>
</svg>
