<?xml version="1.0" encoding="UTF-8" standalone="no"?>
<svg
   xmlns:dc="http://purl.org/dc/elements/1.1/"
   xmlns:cc="http://creativecommons.org/ns#"
   xmlns:rdf="http://www.w3.org/1999/02/22-rdf-syntax-ns#"
   xmlns:svg="http://www.w3.org/2000/svg"
   xmlns="http://www.w3.org/2000/svg"
   viewBox="0 0 517.28131 509.33334"
   height="509.33334"
   width="517.28131"
   xml:space="preserve"
   id="svg2"
   version="1.1"><metadata
     id="metadata8"><rdf:RDF><cc:Work
         rdf:about=""><dc:format>image/svg+xml</dc:format><dc:type
           rdf:resource="http://purl.org/dc/dcmitype/StillImage" /></cc:Work></rdf:RDF></metadata><defs
     id="defs6"><clipPath
       id="clipPath18"
       clipPathUnits="userSpaceOnUse"><path
         id="path16"
         d="M 0,382 H 387.961 V 0 H 0 Z" /></clipPath></defs><g
     transform="matrix(1.3333333,0,0,-1.3333333,0,509.33333)"
     id="g10"><g
       id="g12"><g
         clip-path="url(#clipPath18)"
         id="g14"><g
           transform="translate(94.805,293.164)"
           id="g20"><path
             id="path22"
             style="fill:#ffffff;fill-opacity:1;fill-rule:nonzero;stroke:none"
             d="m 0,0 h 5.55 c 8.434,0 15.274,6.84 15.274,15.274 v 57.91 c 0,8.434 -6.84,15.273 -15.274,15.273 H 0 c -8.434,0 -15.274,-6.839 -15.274,-15.273 V 15.274 C -15.274,6.84 -8.434,0 0,0" /></g><g
           transform="translate(290.699,293.543)"
           id="g24"><path
             id="path26"
             style="fill:#ffffff;fill-opacity:1;fill-rule:nonzero;stroke:none"
             d="m 0,0 h 5.551 c 8.434,0 15.27,6.84 15.27,15.274 v 57.914 c 0,8.43 -6.836,15.269 -15.27,15.269 H 0 c -8.437,0 -15.273,-6.839 -15.273,-15.269 V 15.274 C -15.273,6.84 -8.433,0 0,0" /></g><g
           transform="translate(363.133,25.731)"
           id="g28"><path
             id="path30"
             style="fill:#ffffff;fill-opacity:1;fill-rule:nonzero;stroke:none"
             d="M 0,0 H -338.305 V 226.57 H 0.004 L 0.015,0 Z m 0,324.855 h -39.195 v -45.769 c 0,-15.266 -12.422,-23.688 -27.688,-23.688 h -5.551 c -15.265,0 -27.687,12.422 -27.687,27.688 v 41.769 H -235.09 v -42.148 c 0,-15.266 -12.422,-27.688 -27.688,-27.688 h -5.55 c -15.266,0 -27.688,12.422 -27.688,27.688 v 42.148 h -42.289 c -13.691,0 -24.828,-11.14 -24.828,-24.832 V 0 c 0,-13.692 11.137,-24.828 24.828,-24.828 H 0 c 13.691,0 24.828,11.136 24.828,24.828 v 300.023 c 0,13.692 -11.137,24.832 -24.828,24.832" /></g><g
           transform="translate(206.797,176.305)"
           id="g32"><path
             id="path34"
             style="fill:#ffffff;fill-opacity:1;fill-rule:nonzero;stroke:none"
             d="m 0,0 h 44.582 c 1.766,0 3.199,1.43 3.199,3.199 v 38.602 c 0,1.769 -1.433,3.203 -3.199,3.203 H 0 c -1.766,0 -3.199,-1.434 -3.199,-3.203 V 3.199 C -3.199,1.43 -1.766,0 0,0" /></g><g
           transform="translate(279.555,176.305)"
           id="g36"><path
             id="path38"
             style="fill:#ffffff;fill-opacity:1;fill-rule:nonzero;stroke:none"
             d="m 0,0 h 44.582 c 1.765,0 3.199,1.43 3.199,3.199 v 38.602 c 0,1.769 -1.434,3.203 -3.199,3.203 H 0 c -1.766,0 -3.2,-1.434 -3.2,-3.203 V 3.199 C -3.2,1.43 -1.766,0 0,0" /></g><g
           transform="translate(61.289,113.102)"
           id="g40"><path
             id="path42"
             style="fill:#ffffff;fill-opacity:1;fill-rule:nonzero;stroke:none"
             d="m 0,0 h 44.582 c 1.766,0 3.199,1.434 3.199,3.203 v 38.602 c 0,1.769 -1.433,3.199 -3.199,3.199 H 0 c -1.766,0 -3.199,-1.43 -3.199,-3.199 V 3.203 C -3.199,1.434 -1.766,0 0,0" /></g><g
           transform="translate(134.043,113.102)"
           id="g44"><path
             id="path46"
             style="fill:#ffffff;fill-opacity:1;fill-rule:nonzero;stroke:none"
             d="m 0,0 h 44.582 c 1.766,0 3.199,1.434 3.199,3.203 v 38.602 c 0,1.769 -1.433,3.199 -3.199,3.199 H 0 c -1.766,0 -3.199,-1.43 -3.199,-3.199 V 3.203 C -3.199,1.434 -1.766,0 0,0" /></g><g
           transform="translate(206.801,113.102)"
           id="g48"><path
             id="path50"
             style="fill:#ffffff;fill-opacity:1;fill-rule:nonzero;stroke:none"
             d="m 0,0 h 44.578 c 1.769,0 3.199,1.434 3.199,3.203 v 38.602 c 0,1.769 -1.43,3.199 -3.199,3.199 H 0 c -1.77,0 -3.203,-1.43 -3.203,-3.199 V 3.203 C -3.203,1.434 -1.77,0 0,0" /></g><g
           transform="translate(279.555,113.102)"
           id="g52"><path
             id="path54"
             style="fill:#ffffff;fill-opacity:1;fill-rule:nonzero;stroke:none"
             d="m 0,0 h 44.582 c 1.765,0 3.199,1.434 3.199,3.203 v 38.602 c 0,1.769 -1.434,3.199 -3.199,3.199 H 0 c -1.766,0 -3.2,-1.43 -3.2,-3.199 V 3.203 C -3.2,1.434 -1.766,0 0,0" /></g><g
           transform="translate(105.871,94.907)"
           id="g56"><path
             id="path58"
             style="fill:#ffffff;fill-opacity:1;fill-rule:nonzero;stroke:none"
             d="m 0,0 h -44.582 c -1.766,0 -3.199,-1.434 -3.199,-3.2 v -38.605 c 0,-1.766 1.433,-3.199 3.199,-3.199 H 0 c 1.766,0 3.199,1.433 3.199,3.199 V -3.2 C 3.199,-1.434 1.766,0 0,0" /></g><g
           transform="translate(178.625,94.907)"
           id="g60"><path
             id="path62"
             style="fill:#ffffff;fill-opacity:1;fill-rule:nonzero;stroke:none"
             d="m 0,0 h -44.582 c -1.766,0 -3.199,-1.434 -3.199,-3.2 v -38.605 c 0,-1.766 1.433,-3.199 3.199,-3.199 H 0 c 1.77,0 3.199,1.433 3.199,3.199 V -3.2 C 3.199,-1.434 1.77,0 0,0" /></g><g
           transform="translate(251.379,94.907)"
           id="g64"><path
             id="path66"
             style="fill:#ffffff;fill-opacity:1;fill-rule:nonzero;stroke:none"
             d="m 0,0 h -44.578 c -1.77,0 -3.199,-1.434 -3.199,-3.2 v -38.605 c 0,-1.766 1.429,-3.199 3.199,-3.199 H 0 c 1.769,0 3.203,1.433 3.203,3.199 V -3.2 C 3.203,-1.434 1.769,0 0,0" /></g><g
           transform="translate(324.137,94.907)"
           id="g68"><path
             id="path70"
             style="fill:#ffffff;fill-opacity:1;fill-rule:nonzero;stroke:none"
             d="m 0,0 h -44.582 c -1.766,0 -3.2,-1.434 -3.2,-3.2 v -38.605 c 0,-1.766 1.434,-3.199 3.2,-3.199 H 0 c 1.765,0 3.199,1.433 3.199,3.199 V -3.2 C 3.199,-1.434 1.765,0 0,0" /></g></g></g></g></svg>