<?xml version="1.0" encoding="UTF-8" standalone="no"?>
<svg
   xmlns:dc="http://purl.org/dc/elements/1.1/"
   xmlns:cc="http://creativecommons.org/ns#"
   xmlns:rdf="http://www.w3.org/1999/02/22-rdf-syntax-ns#"
   xmlns:svg="http://www.w3.org/2000/svg"
   xmlns="http://www.w3.org/2000/svg"
   viewBox="0 0 325.79068 282.50534"
   height="282.50534"
   width="325.79068"
   xml:space="preserve"
   id="svg2"
   version="1.1"><metadata
     id="metadata8"><rdf:RDF><cc:Work
         rdf:about=""><dc:format>image/svg+xml</dc:format><dc:type
           rdf:resource="http://purl.org/dc/dcmitype/StillImage" /></cc:Work></rdf:RDF></metadata><defs
     id="defs6"><clipPath
       id="clipPath18"
       clipPathUnits="userSpaceOnUse"><path
         id="path16"
         d="M 0,211.879 H 244.343 V 0 H 0 Z" /></clipPath><clipPath
       id="clipPath26"
       clipPathUnits="userSpaceOnUse"><path
         id="path24"
         d="M 38.6909,11.8733 H 203.266 V 0 H 38.6909 Z" /></clipPath><clipPath
       id="clipPath30"
       clipPathUnits="userSpaceOnUse"><path
         id="path28"
         d="M 203.266,5.937 C 203.266,2.658 166.425,0 120.979,0 75.532,0 38.691,2.658 38.691,5.937 c 0,3.278 36.841,5.936 82.288,5.936 45.446,0 82.287,-2.658 82.287,-5.936" /></clipPath><linearGradient
       id="linearGradient36"
       spreadMethod="pad"
       gradientTransform="matrix(164.57559,0,0,-164.57559,38.690876,5.9366317)"
       gradientUnits="userSpaceOnUse"
       y2="0"
       x2="1"
       y1="0"
       x1="0"><stop
         id="stop32"
         offset="0"
         style="stop-opacity:1;stop-color:#231f20" /><stop
         id="stop34"
         offset="1"
         style="stop-opacity:1;stop-color:#ffffff" /></linearGradient><clipPath
       id="clipPath58"
       clipPathUnits="userSpaceOnUse"><path
         id="path56"
         d="M 184.525,203.881 10.733,135.742 C 4.259,133.822 0.034,127.851 0,121.41 v 0 -0.158 c 0.007,-1.376 0.207,-2.774 0.617,-4.156 v 0 L 29.728,15.602 C 32.074,7.692 40.465,3.14 48.374,5.486 v 0 l 179.694,52.907 c 7.91,2.346 12.462,10.736 10.116,18.646 v 0 l -35.013,116.726 c -1.927,6.499 -7.938,10.732 -14.408,10.733 v 0 c -1.404,0 -2.828,-0.199 -4.238,-0.617" /></clipPath><linearGradient
       id="linearGradient74"
       spreadMethod="pad"
       gradientTransform="matrix(124.60545,215.82297,215.82297,-124.60545,59.657959,-6.4098935)"
       gradientUnits="userSpaceOnUse"
       y2="0"
       x2="1"
       y1="0"
       x1="0"><stop
         id="stop64"
         offset="0"
         style="stop-opacity:1;stop-color:#000000" /><stop
         id="stop66"
         offset="0.16595211"
         style="stop-opacity:1;stop-color:#242b2e" /><stop
         id="stop68"
         offset="0.322664"
         style="stop-opacity:1;stop-color:#242b2e" /><stop
         id="stop70"
         offset="0.64116455"
         style="stop-opacity:1;stop-color:#000000" /><stop
         id="stop72"
         offset="1"
         style="stop-opacity:1;stop-color:#000000" /></linearGradient><clipPath
       id="clipPath84"
       clipPathUnits="userSpaceOnUse"><path
         id="path82"
         d="M 184.525,203.881 10.732,135.742 C 4.259,133.822 0.034,127.852 0,121.412 v 0 -0.161 c 0.007,-1.376 0.207,-2.773 0.617,-4.155 v 0 L 29.728,15.602 C 32.074,7.692 40.465,3.14 48.374,5.486 v 0 l 179.694,52.907 c 7.91,2.346 12.462,10.736 10.116,18.646 v 0 l -35.013,116.726 c -1.927,6.499 -7.938,10.732 -14.408,10.733 v 0 c -1.404,0 -2.828,-0.199 -4.238,-0.617" /></clipPath></defs><g
     transform="matrix(1.3333333,0,0,-1.3333333,0,282.50533)"
     id="g10"><g
       id="g12"><g
         clip-path="url(#clipPath18)"
         id="g14"><g
           id="g20"><g
             id="g22" /><g
             id="g50"><g
               style="opacity:0.19999701"
               id="g48"
               clip-path="url(#clipPath26)"><g
                 id="g46"><g
                   id="g44"
                   clip-path="url(#clipPath30)"><g
                     id="g42"><g
                       id="g40"><path
                         id="path38"
                         style="fill:url(#linearGradient36);stroke:none"
                         d="M 203.266,5.937 C 203.266,2.658 166.425,0 120.979,0 75.532,0 38.691,2.658 38.691,5.937 c 0,3.278 36.841,5.936 82.288,5.936 45.446,0 82.287,-2.658 82.287,-5.936" /></g></g></g></g></g></g></g></g></g><g
       id="g52"><g
         clip-path="url(#clipPath58)"
         id="g54"><g
           id="g60"><g
             id="g62"><path
               id="path76"
               style="fill:url(#linearGradient74);stroke:none"
               d="M 184.525,203.881 10.733,135.742 C 4.259,133.822 0.034,127.851 0,121.41 v 0 -0.158 c 0.007,-1.376 0.207,-2.774 0.617,-4.156 v 0 L 29.728,15.602 C 32.074,7.692 40.465,3.14 48.374,5.486 v 0 l 179.694,52.907 c 7.91,2.346 12.462,10.736 10.116,18.646 v 0 l -35.013,116.726 c -1.927,6.499 -7.938,10.732 -14.408,10.733 v 0 c -1.404,0 -2.828,-0.199 -4.238,-0.617" /></g></g></g></g><g
       id="g78"><g
         clip-path="url(#clipPath84)"
         id="g80"><g
           transform="translate(20.5428,127.9607)"
           id="g86"><path
             id="path88"
             style="fill:#666060;fill-opacity:1;fill-rule:nonzero;stroke:none"
             d="m 0,0 c -2.502,1.17 -4.789,1.834 -7.508,2.196 -5.001,0.666 -7.693,-1.439 -8.058,-2.098 -1.172,-2.113 0.017,-4.874 2.527,-5.284 2.131,-0.348 9.339,1.644 10.465,1.495 2.142,-0.284 3.397,-1.534 3.108,-3.725 -0.236,-1.795 -4.018,-7.695 -4.184,-9.279 -0.221,-2.119 0.296,-3.376 1.863,-4.432 1.387,-0.935 2.785,-0.732 4.253,-0.033 1.653,0.788 2.605,3.931 2.76,4.878 0.579,3.537 0.377,7.052 -0.498,10.53 C 4.057,-3.086 2.52,-1.178 0,0" /></g><g
           transform="translate(29.0421,123.7178)"
           id="g90"><path
             id="path92"
             style="fill:#666060;fill-opacity:1;fill-rule:nonzero;stroke:none"
             d="m 0,0 c 2.699,-2.362 5.738,-4.141 9.15,-5.234 0.915,-0.294 4.147,-0.875 5.6,0.238 1.29,0.989 2.107,2.142 1.906,3.802 -0.228,1.877 -1.112,2.909 -3.1,3.676 C 12.07,3.055 5.096,2.371 3.39,2.978 1.308,3.717 0.765,5.404 1.487,7.44 1.866,8.511 6.92,14.024 7.579,16.079 8.356,18.501 6.439,20.816 4.024,20.734 3.271,20.708 0.172,19.269 -1.51,14.513 -2.425,11.926 -2.874,9.588 -2.971,6.827 -3.068,4.047 -2.069,1.81 0,0" /></g><g
           transform="translate(15.4835,138.3394)"
           id="g94"><path
             id="path96"
             style="fill:#666060;fill-opacity:1;fill-rule:nonzero;stroke:none"
             d="m 0,0 c 0,0 4.611,-5.512 5.489,-6.062 0.984,-0.615 1.563,-0.373 1.8,0.777 C 7.416,-4.672 6.984,-1.212 6.733,-0.14 6.28,1.8 5.892,3.787 4.856,5.52 3.784,7.316 1.59,7.744 -0.169,6.614 -2.016,5.427 -2.437,3.626 -1.27,1.778 -0.882,1.163 -0.425,0.591 0,0" /></g><g
           transform="translate(71.4428,149.526)"
           id="g98"><path
             id="path100"
             style="fill:#666060;fill-opacity:1;fill-rule:nonzero;stroke:none"
             d="m 0,0 c -2.502,1.17 -4.789,1.834 -7.508,2.196 -5.001,0.666 -7.693,-1.439 -8.058,-2.098 -1.172,-2.113 0.017,-4.874 2.527,-5.284 2.131,-0.348 9.339,1.644 10.465,1.495 2.142,-0.284 3.397,-1.534 3.108,-3.725 -0.236,-1.795 -4.018,-7.695 -4.184,-9.279 -0.221,-2.119 0.296,-3.376 1.863,-4.432 1.387,-0.935 2.785,-0.732 4.253,-0.033 1.653,0.788 2.605,3.931 2.76,4.878 0.579,3.537 0.377,7.052 -0.498,10.53 C 4.057,-3.086 2.52,-1.178 0,0" /></g><g
           transform="translate(79.942,145.2831)"
           id="g102"><path
             id="path104"
             style="fill:#666060;fill-opacity:1;fill-rule:nonzero;stroke:none"
             d="m 0,0 c 2.699,-2.362 5.738,-4.141 9.15,-5.234 0.915,-0.294 4.147,-0.875 5.6,0.238 1.29,0.989 2.107,2.142 1.906,3.802 -0.228,1.877 -1.112,2.909 -3.1,3.676 C 12.07,3.055 5.096,2.371 3.39,2.978 1.308,3.717 0.765,5.404 1.487,7.44 1.866,8.511 6.92,14.024 7.579,16.079 8.356,18.501 6.439,20.816 4.024,20.734 3.271,20.708 0.172,19.269 -1.51,14.513 -2.425,11.926 -2.874,9.588 -2.971,6.828 -3.068,4.047 -2.069,1.81 0,0" /></g><g
           transform="translate(66.3834,159.9047)"
           id="g106"><path
             id="path108"
             style="fill:#666060;fill-opacity:1;fill-rule:nonzero;stroke:none"
             d="m 0,0 c 0,0 4.611,-5.512 5.489,-6.062 0.984,-0.615 1.563,-0.373 1.8,0.777 C 7.416,-4.672 6.984,-1.212 6.733,-0.14 6.28,1.8 5.892,3.787 4.856,5.52 3.784,7.316 1.59,7.744 -0.169,6.614 -2.016,5.427 -2.437,3.626 -1.27,1.778 -0.882,1.163 -0.425,0.591 0,0" /></g><g
           transform="translate(117.0329,148.9045)"
           id="g110"><path
             id="path112"
             style="fill:#666060;fill-opacity:1;fill-rule:nonzero;stroke:none"
             d="m 0,0 c 1.93,1.976 3.312,3.915 4.552,6.363 2.279,4.501 1.18,7.736 0.679,8.298 C 3.623,16.465 0.624,16.253 -0.591,14.02 -1.623,12.123 -2.122,4.661 -2.635,3.648 -3.609,1.72 -5.204,0.948 -7.177,1.943 c -1.616,0.816 -5.937,6.333 -7.377,7.013 -1.927,0.908 -3.285,0.835 -4.799,-0.296 -1.34,-1 -1.61,-2.387 -1.435,-4.003 0.198,-1.821 2.85,-3.757 3.694,-4.216 3.147,-1.714 6.532,-2.684 10.104,-3.006 C -4.252,-2.812 -1.944,-1.99 0,0" /></g><g
           transform="translate(110.2223,142.2822)"
           id="g114"><path
             id="path116"
             style="fill:#666060;fill-opacity:1;fill-rule:nonzero;stroke:none"
             d="m 0,0 c -3.12,-1.768 -5.802,-4.05 -7.961,-6.91 -0.579,-0.766 -2.195,-3.625 -1.623,-5.364 0.507,-1.545 1.326,-2.697 2.959,-3.054 1.847,-0.405 3.113,0.089 4.493,1.712 1.032,1.214 2.688,8.023 3.824,9.433 1.385,1.721 3.156,1.677 4.84,0.323 0.886,-0.711 4.421,-7.301 6.144,-8.602 2.03,-1.533 4.848,-0.487 5.568,1.82 0.224,0.719 -0.111,4.119 -4.046,7.277 -2.14,1.718 -4.199,2.913 -6.773,3.916 C 4.833,1.56 2.392,1.356 0,0" /></g><g
           transform="translate(128.4999,150.2544)"
           id="g118"><path
             id="path120"
             style="fill:#666060;fill-opacity:1;fill-rule:nonzero;stroke:none"
             d="m 0,0 c 0,0 -6.725,-2.533 -7.534,-3.181 -0.906,-0.725 -0.868,-1.352 0.139,-1.955 0.537,-0.322 3.946,-1.056 5.041,-1.174 1.98,-0.212 3.984,-0.502 5.962,-0.096 2.049,0.419 3.177,2.349 2.691,4.382 C 5.789,0.112 4.227,1.103 2.097,0.612 1.389,0.448 0.699,0.206 0,0" /></g><g
           transform="translate(146.2025,156.7663)"
           id="g122"><path
             id="path124"
             style="fill:#666060;fill-opacity:1;fill-rule:nonzero;stroke:none"
             d="m 0,0 c -2.293,2.042 -4.518,3.478 -7.3,4.73 -5.117,2.301 -8.654,0.915 -9.253,0.33 -1.921,-1.879 -1.533,-5.199 1.01,-6.434 2.16,-1.049 10.474,-1.222 11.626,-1.739 2.192,-0.984 3.13,-2.716 2.126,-4.958 -0.824,-1.838 -6.731,-6.919 -7.412,-8.554 -0.91,-2.187 -0.759,-3.691 0.574,-5.316 1.18,-1.437 2.734,-1.666 4.521,-1.388 2.012,0.313 4.027,3.358 4.493,4.318 1.742,3.584 2.647,7.394 2.822,11.378 C 3.341,-4.579 2.31,-2.057 0,0" /></g><g
           transform="translate(153.9071,149.5403)"
           id="g126"><path
             id="path128"
             style="fill:#666060;fill-opacity:1;fill-rule:nonzero;stroke:none"
             d="m 0,0 c 2.124,-3.375 4.795,-6.238 8.083,-8.49 0.881,-0.603 4.139,-2.252 6.042,-1.528 1.689,0.643 2.927,1.611 3.24,3.444 0.355,2.072 -0.258,3.453 -2.132,4.903 C 13.832,-0.587 6.184,0.904 4.56,2.093 2.577,3.544 2.535,5.514 3.953,7.454 c 0.745,1.019 7.883,5.284 9.241,7.265 1.598,2.332 0.293,5.409 -2.307,6.09 -0.81,0.213 -4.57,-0.334 -7.876,-4.866 C 1.212,13.478 -0.01,11.13 -0.992,8.22 -1.981,5.289 -1.628,2.588 0,0" /></g><g
           transform="translate(144.116,169.4344)"
           id="g130"><path
             id="path132"
             style="fill:#666060;fill-opacity:1;fill-rule:nonzero;stroke:none"
             d="m 0,0 c 0,0 3.158,-7.34 3.919,-8.206 0.852,-0.969 1.546,-0.894 2.165,0.255 0.33,0.613 0.971,4.436 1.045,5.659 C 7.263,-0.081 7.483,2.159 6.931,4.336 6.36,6.59 4.159,7.744 1.925,7.1 -0.42,6.424 -1.442,4.639 -0.787,2.298 -0.569,1.52 -0.265,0.765 0,0" /></g><g
           transform="translate(188.8398,137.41)"
           id="g134"><path
             id="path136"
             style="fill:#666060;fill-opacity:1;fill-rule:nonzero;stroke:none"
             d="m 0,0 c 0.191,2.984 -0.041,5.551 -0.75,8.435 -1.303,5.304 -4.487,7.186 -5.295,7.294 -2.594,0.347 -4.906,-1.942 -4.329,-4.633 0.49,-2.285 5.344,-8.765 5.638,-9.959 0.559,-2.271 -0.206,-4.029 -2.528,-4.603 -1.903,-0.47 -9.342,1.013 -11.005,0.555 -2.223,-0.613 -3.286,-1.631 -3.732,-3.628 -0.395,-1.767 0.362,-3.096 1.646,-4.299 1.446,-1.356 4.99,-1.075 6.006,-0.857 3.793,0.813 7.257,2.404 10.418,4.658 C -1.509,-5.308 -0.193,-3.005 0,0" /></g><g
           transform="translate(187.9181,127.168)"
           id="g138"><path
             id="path140"
             style="fill:#666060;fill-opacity:1;fill-rule:nonzero;stroke:none"
             d="m 0,0 c -1.315,-3.653 -1.909,-7.418 -1.664,-11.29 0.065,-1.037 0.755,-4.525 2.451,-5.55 1.506,-0.91 2.991,-1.278 4.585,-0.42 1.801,0.97 2.493,2.269 2.481,4.575 -0.009,1.724 -3.451,8.484 -3.514,10.443 -0.076,2.391 1.41,3.604 3.748,3.68 1.228,0.04 8.78,-2.877 11.113,-2.73 2.747,0.172 4.324,3.019 3.288,5.421 C 22.165,4.877 19.491,7.433 14.033,7.252 11.064,7.153 8.53,6.682 5.709,5.69 2.868,4.691 1.008,2.8 0,0" /></g><g
           transform="translate(197.3042,146.6067)"
           id="g142"><path
             id="path144"
             style="fill:#666060;fill-opacity:1;fill-rule:nonzero;stroke:none"
             d="m 0,0 c 0,0 -3.736,-6.823 -3.943,-7.926 -0.233,-1.234 0.241,-1.722 1.493,-1.508 0.668,0.115 3.985,1.916 4.967,2.592 1.776,1.223 3.626,2.398 4.965,4.126 C 8.868,-0.926 8.433,1.454 6.6,2.781 4.675,4.175 2.693,3.888 1.291,1.982 0.824,1.348 0.428,0.662 0,0" /></g><g
           transform="translate(130.8423,192.2147)"
           id="g146"><path
             id="path148"
             style="fill:#666060;fill-opacity:1;fill-rule:nonzero;stroke:none"
             d="m 0,0 c -2.897,1.018 -5.501,1.501 -8.55,1.601 -5.607,0.185 -8.353,-2.441 -8.684,-3.21 -1.064,-2.468 0.557,-5.391 3.379,-5.568 2.396,-0.15 10.152,2.85 11.414,2.809 2.402,-0.078 3.928,-1.323 3.851,-3.778 -0.064,-2.013 -3.597,-8.958 -3.606,-10.729 -0.011,-2.369 0.7,-3.703 2.551,-4.699 1.637,-0.881 3.162,-0.502 4.709,0.434 1.742,1.053 2.449,4.636 2.516,5.702 0.249,3.976 -0.362,7.844 -1.714,11.596 C 4.83,-2.966 2.918,-1.025 0,0" /></g><g
           transform="translate(140.7146,188.458)"
           id="g150"><path
             id="path152"
             style="fill:#666060;fill-opacity:1;fill-rule:nonzero;stroke:none"
             d="m 0,0 c 3.247,-2.315 6.806,-3.948 10.702,-4.782 1.044,-0.223 4.685,-0.51 6.17,0.882 1.318,1.237 2.095,2.603 1.689,4.417 C 18.102,2.568 17.01,3.613 14.726,4.242 13.018,4.712 5.377,3.186 3.422,3.669 1.037,4.257 0.25,6.063 0.824,8.396 1.126,9.623 6.109,16.28 6.612,18.628 7.204,21.393 4.827,23.743 2.164,23.385 1.334,23.274 -1.936,21.34 -3.273,15.891 -4,12.928 -4.238,10.291 -4.041,7.227 -3.842,4.14 -2.489,1.775 0,0" /></g><g
           transform="translate(124.0989,203.14)"
           id="g154"><path
             id="path156"
             style="fill:#666060;fill-opacity:1;fill-rule:nonzero;stroke:none"
             d="m 0,0 c 0,0 5.71,-5.59 6.743,-6.101 1.156,-0.573 1.77,-0.24 1.906,1.058 C 8.721,-4.351 7.861,-0.57 7.465,0.589 6.75,2.684 6.101,4.84 4.764,6.644 3.379,8.512 0.905,8.744 -0.917,7.3 -2.83,5.783 -3.097,3.743 -1.601,1.827 -1.104,1.19 -0.536,0.607 0,0" /></g><g
           transform="translate(179.8387,182.1872)"
           id="g158"><path
             id="path160"
             style="fill:#666060;fill-opacity:1;fill-rule:nonzero;stroke:none"
             d="m 0,0 c -2.897,1.018 -5.501,1.501 -8.55,1.601 -5.607,0.185 -8.353,-2.441 -8.684,-3.21 -1.064,-2.468 0.557,-5.391 3.379,-5.568 2.396,-0.15 10.152,2.85 11.414,2.809 2.402,-0.078 3.928,-1.323 3.851,-3.778 -0.064,-2.013 -3.597,-8.958 -3.606,-10.729 -0.011,-2.369 0.7,-3.703 2.551,-4.699 1.637,-0.881 3.162,-0.502 4.709,0.434 1.742,1.053 2.449,4.636 2.516,5.702 0.249,3.976 -0.362,7.844 -1.714,11.596 C 4.83,-2.966 2.918,-1.025 0,0" /></g><g
           transform="translate(189.711,178.4305)"
           id="g162"><path
             id="path164"
             style="fill:#666060;fill-opacity:1;fill-rule:nonzero;stroke:none"
             d="m 0,0 c 3.247,-2.315 6.806,-3.948 10.702,-4.782 1.044,-0.223 4.685,-0.51 6.17,0.882 1.318,1.237 2.095,2.603 1.689,4.417 C 18.102,2.568 17.01,3.613 14.726,4.242 13.018,4.712 5.377,3.186 3.422,3.669 1.037,4.257 0.25,6.063 0.824,8.396 1.126,9.623 6.109,16.28 6.612,18.628 7.204,21.393 4.827,23.743 2.164,23.385 1.334,23.274 -1.936,21.34 -3.273,15.891 -4,12.928 -4.238,10.291 -4.041,7.227 -3.842,4.14 -2.489,1.775 0,0" /></g><g
           transform="translate(173.0953,193.1125)"
           id="g166"><path
             id="path168"
             style="fill:#666060;fill-opacity:1;fill-rule:nonzero;stroke:none"
             d="m 0,0 c 0,0 5.71,-5.59 6.743,-6.101 1.156,-0.573 1.77,-0.24 1.906,1.058 C 8.721,-4.351 7.861,-0.57 7.465,0.589 6.75,2.684 6.101,4.84 4.764,6.644 3.379,8.512 0.905,8.744 -0.917,7.3 -2.83,5.783 -3.096,3.743 -1.601,1.827 -1.104,1.19 -0.536,0.607 0,0" /></g><g
           transform="translate(217.897,159.6236)"
           id="g170"><path
             id="path172"
             style="fill:#666060;fill-opacity:1;fill-rule:nonzero;stroke:none"
             d="m 0,0 c -2.503,1.779 -4.872,2.962 -7.775,3.901 -5.338,1.726 -8.702,-0.04 -9.233,-0.687 -1.704,-2.079 -0.954,-5.335 1.71,-6.285 2.261,-0.806 10.544,-0.065 11.746,-0.453 2.286,-0.738 3.41,-2.356 2.657,-4.695 -0.617,-1.917 -5.931,-7.615 -6.429,-9.315 -0.665,-2.274 -0.35,-3.752 1.154,-5.221 1.33,-1.299 2.9,-1.356 4.645,-0.884 1.966,0.532 3.635,3.78 3.993,4.785 1.339,3.754 1.82,7.639 1.557,11.619 C 3.823,-4.185 2.522,-1.792 0,0" /></g><g
           transform="translate(226.3477,153.2863)"
           id="g174"><path
             id="path176"
             style="fill:#666060;fill-opacity:1;fill-rule:nonzero;stroke:none"
             d="m 0,0 c 2.481,-3.122 5.45,-5.674 8.965,-7.552 0.942,-0.503 4.361,-1.784 6.173,-0.856 1.609,0.824 2.733,1.922 2.844,3.778 0.125,2.098 -0.636,3.405 -2.657,4.64 C 13.813,0.933 6.048,1.577 4.302,2.581 2.172,3.805 1.915,5.758 3.111,7.842 3.74,8.937 10.368,13.96 11.5,16.077 12.832,18.571 11.197,21.486 8.539,21.878 7.71,22 4.033,21.045 1.244,16.177 -0.273,13.53 -1.231,11.061 -1.887,8.061 -2.549,5.04 -1.902,2.393 0,0" /></g><g
           transform="translate(214.4336,171.9865)"
           id="g178"><path
             id="path180"
             style="fill:#666060;fill-opacity:1;fill-rule:nonzero;stroke:none"
             d="m 0,0 c 0,0 3.944,-6.949 4.795,-7.726 0.953,-0.87 1.635,-0.72 2.124,0.49 0.261,0.646 0.479,4.516 0.419,5.74 C 7.228,0.716 7.201,2.967 6.414,5.07 5.599,7.248 3.285,8.154 1.135,7.269 -1.122,6.339 -1.942,4.453 -1.034,2.198 -0.732,1.448 -0.347,0.732 0,0" /></g><g
           transform="translate(207.0806,99.1678)"
           id="g182"><path
             id="path184"
             style="fill:#666060;fill-opacity:1;fill-rule:nonzero;stroke:none"
             d="m 0,0 c 1.487,2.593 2.411,5 3.047,7.901 1.17,5.335 -0.858,8.428 -1.536,8.882 -2.174,1.455 -5.259,0.421 -5.928,-2.249 -0.568,-2.267 0.93,-10.223 0.668,-11.424 -0.5,-2.285 -1.962,-3.526 -4.299,-3.017 -1.915,0.417 -7.938,5.029 -9.632,5.351 -2.266,0.43 -3.669,-0.014 -4.95,-1.61 -1.133,-1.411 -1.04,-2.938 -0.419,-4.584 0.7,-1.855 4.005,-3.166 5.013,-3.418 3.763,-0.944 7.574,-1.043 11.404,-0.413 C -3.695,-4.098 -1.498,-2.612 0,0" /></g><g
           transform="translate(201.7363,90.3822)"
           id="g186"><path
             id="path188"
             style="fill:#666060;fill-opacity:1;fill-rule:nonzero;stroke:none"
             d="m 0,0 c -2.791,-2.698 -4.985,-5.816 -6.473,-9.398 -0.398,-0.96 -1.318,-4.394 -0.247,-6.063 0.95,-1.481 2.12,-2.466 3.929,-2.399 2.044,0.076 3.238,0.937 4.245,3.012 0.752,1.551 0.644,9.136 1.452,10.922 0.986,2.18 2.854,2.613 4.986,1.65 1.12,-0.506 6.611,-6.455 8.77,-7.352 2.541,-1.056 5.212,0.803 5.341,3.416 0.041,0.814 -1.232,4.287 -6.211,6.531 C 13.084,1.54 10.602,2.235 7.633,2.588 4.643,2.945 2.14,2.069 0,0" /></g><g
           transform="translate(218.7334,103.6887)"
           id="g190"><path
             id="path192"
             style="fill:#666060;fill-opacity:1;fill-rule:nonzero;stroke:none"
             d="m 0,0 c 0,0 -6.362,-4.476 -7.035,-5.375 -0.753,-1.005 -0.543,-1.652 0.676,-2.011 0.65,-0.192 4.421,-0.039 5.601,0.135 2.133,0.314 4.311,0.553 6.275,1.514 C 7.55,-4.742 8.21,-2.414 7.15,-0.415 6.037,1.685 4.131,2.302 2.032,1.209 1.334,0.846 0.676,0.405 0,0" /></g><g
           transform="translate(177.4345,62.2829)"
           id="g194"><path
             id="path196"
             style="fill:#666060;fill-opacity:1;fill-rule:nonzero;stroke:none"
             d="m 0,0 c -3.047,0.382 -5.694,0.303 -8.695,-0.244 -5.519,-1.006 -7.647,-4.154 -7.808,-4.976 -0.517,-2.637 1.685,-5.151 4.481,-4.726 2.373,0.36 9.319,4.933 10.561,5.16 2.364,0.433 4.119,-0.461 4.563,-2.878 0.364,-1.98 -1.62,-9.515 -1.254,-11.248 0.491,-2.318 1.468,-3.471 3.488,-4.053 1.786,-0.514 3.196,0.179 4.51,1.42 1.48,1.399 1.413,5.05 1.252,6.106 C 10.501,-11.5 9.085,-7.849 6.97,-4.469 5.348,-1.877 3.069,-0.385 0,0" /></g><g
           transform="translate(187.8782,60.7005)"
           id="g198"><path
             id="path200"
             style="fill:#666060;fill-opacity:1;fill-rule:nonzero;stroke:none"
             d="m 0,0 c 3.663,-1.576 7.487,-2.418 11.472,-2.409 1.067,0.003 4.686,0.493 5.843,2.168 1.027,1.488 1.497,2.987 0.716,4.675 C 17.148,6.341 15.86,7.131 13.494,7.262 11.726,7.361 4.581,4.252 2.568,4.31 0.112,4.38 -1.038,5.979 -0.971,8.381 -0.936,9.643 2.525,17.204 2.52,19.605 2.513,22.433 -0.307,24.226 -2.834,23.313 -3.622,23.029 -6.409,20.447 -6.562,14.839 -6.645,11.789 -6.32,9.161 -5.478,6.208 -4.631,3.233 -2.808,1.208 0,0" /></g><g
           transform="translate(168.5318,71.5336)"
           id="g202"><path
             id="path204"
             style="fill:#666060;fill-opacity:1;fill-rule:nonzero;stroke:none"
             d="M 0,0 C 0,0 6.763,-4.255 7.881,-4.536 9.132,-4.851 9.662,-4.396 9.52,-3.099 9.444,-2.406 7.804,1.106 7.172,2.155 6.029,4.052 4.939,6.022 3.25,7.502 1.501,9.035 -0.966,8.737 -2.441,6.94 -3.989,5.053 -3.818,3.003 -1.952,1.447 -1.331,0.929 -0.652,0.48 0,0" /></g></g></g></g></svg>