<?xml version="1.0" encoding="UTF-8" standalone="no"?>
<svg
   xmlns:dc="http://purl.org/dc/elements/1.1/"
   xmlns:cc="http://creativecommons.org/ns#"
   xmlns:rdf="http://www.w3.org/1999/02/22-rdf-syntax-ns#"
   xmlns:svg="http://www.w3.org/2000/svg"
   xmlns="http://www.w3.org/2000/svg"
   viewBox="0 0 521.33331 524"
   height="524"
   width="521.33331"
   xml:space="preserve"
   id="svg2"
   version="1.1"><metadata
     id="metadata8"><rdf:RDF><cc:Work
         rdf:about=""><dc:format>image/svg+xml</dc:format><dc:type
           rdf:resource="http://purl.org/dc/dcmitype/StillImage" /></cc:Work></rdf:RDF></metadata><defs
     id="defs6"><clipPath
       id="clipPath20"
       clipPathUnits="userSpaceOnUse"><path
         id="path18"
         d="M 0,3920.71 H 3910 V 0.710938 H 0 Z" /></clipPath></defs><g
     transform="matrix(1.3333333,0,0,-1.3333333,0,524)"
     id="g10"><g
       transform="scale(0.1)"
       id="g12"><g
         id="g14"><g
           clip-path="url(#clipPath20)"
           id="g16"><path
             id="path22"
             style="fill:#000000;fill-opacity:1;fill-rule:nonzero;stroke:none"
             d="m 2113.59,3604.81 c 44.22,58.64 37.11,182.97 30.82,292.66 -0.27,4.73 -0.5,9.34 -0.78,14.06 -61.99,5.9 -124.76,9.18 -188.28,9.18 -243.4,0 -476.29,-44.84 -691.25,-126.13 153.32,-73.67 390.7,-200.51 654.53,-387.93 90,77.46 157.89,148.98 194.96,198.16 z" /><path
             id="path24"
             style="fill:#000000;fill-opacity:1;fill-rule:nonzero;stroke:none"
             d="m 3104.34,2489.07 c -96.41,-10.9 -177.66,-26.72 -247.19,-48.9 332.3,-580.16 461.87,-1313.13 493.55,-1844.15 329.22,335.402 538.28,788.87 558.05,1291.14 -226.84,278.83 -527.34,633.36 -804.41,601.91 z" /><path
             id="path26"
             style="fill:#000000;fill-opacity:1;fill-rule:nonzero;stroke:none"
             d="m 1128.87,2989.85 c 233.47,48.6 452.85,166.1 627.73,290.16 -364.88,251.29 -669.18,381.72 -729.72,406.52 -378.521,-204.61 -681.45,-530.66 -857.661,-925.7 229.062,91.25 477.109,137.69 720.781,182.93 78.828,14.65 160.31,29.76 238.87,46.09 z" /><path
             id="path28"
             style="fill:#000000;fill-opacity:1;fill-rule:nonzero;stroke:none"
             d="m 2480.39,2933.02 c 20.82,-20.94 41.6,-42.27 62.27,-63.95 76.17,-79.96 145.27,-167.42 208.63,-259.96 92.3,34.84 200.98,59.57 331.01,74.26 306.49,34.69 578.99,-208.09 812.86,-475.35 -50.16,405.15 -223.91,771.83 -482.86,1061.05 -141.32,-17.03 -298.86,-45.9 -459.45,-93.83 -105.35,-31.44 -273.12,-116.95 -472.46,-242.22 z" /><path
             id="path30"
             style="fill:#000000;fill-opacity:1;fill-rule:nonzero;stroke:none"
             d="m 2223.09,1923.21 c 80.23,271.64 173.12,467.46 353.08,594.57 -53.98,77.54 -112.15,150.31 -175.12,216.41 -29.1,30.62 -58.59,60.15 -88.12,89.18 C 1590.78,2331.84 601.641,1428.95 511.719,646.691 811.949,318.172 1222.85,92.8984 1685.39,28.9883 1853.83,364.309 2012.34,1045.99 2106.6,1451.42 c 45.24,194.68 84.34,362.85 116.49,471.79 z" /><path
             id="path32"
             style="fill:#000000;fill-opacity:1;fill-rule:nonzero;stroke:none"
             d="m 1404.38,2353.95 c 251.75,232.04 517.65,440.08 760.85,607.27 -81.09,71.72 -162.38,137.85 -242.22,198.48 -201.99,-151.84 -466.45,-301.41 -754.34,-361.25 -80.58,-16.8 -163.16,-32.11 -242.971,-46.96 C 618.199,2694.38 323.012,2639.11 74.7695,2500.59 26.4492,2330.44 0,2151.02 0,1965.36 0,1550.01 129.922,1165.2 350.699,848.52 493.75,1414.89 984.41,1967 1404.38,2353.95 Z" /><path
             id="path34"
             style="fill:#000000;fill-opacity:1;fill-rule:nonzero;stroke:none"
             d="m 2333.63,3072.9 c 232.66,148.32 433.21,250.86 563.32,289.69 116.84,34.92 231.45,60.31 340,78.86 -250.82,217.97 -557.42,373.29 -895.9,441.02 7.54,-136.56 10.79,-286.48 -71.36,-395.43 -39.03,-51.72 -105.04,-122.66 -190.98,-199.65 84.14,-65.47 169.65,-136.91 254.92,-214.49 z" /><path
             id="path36"
             style="fill:#000000;fill-opacity:1;fill-rule:nonzero;stroke:none"
             d="m 2410.62,1867.82 c -30.54,-103.4 -69.02,-268.98 -113.59,-460.7 C 2165.47,841.102 2039.61,334.578 1892.58,11.6094 c 20.86,-0.6602 41.76,-1.5977 62.77,-1.5977 455.7,0 874.61,156.2893 1207.07,417.6603 -13.12,555.656 -146.33,1341.668 -481.87,1925.108 -130.16,-96.72 -200.2,-248.86 -269.93,-484.96 z" /></g></g></g></g></svg>