<?xml version="1.0" encoding="UTF-8" standalone="no"?>
<svg
   xmlns:dc="http://purl.org/dc/elements/1.1/"
   xmlns:cc="http://creativecommons.org/ns#"
   xmlns:rdf="http://www.w3.org/1999/02/22-rdf-syntax-ns#"
   xmlns:svg="http://www.w3.org/2000/svg"
   xmlns="http://www.w3.org/2000/svg"
   viewBox="0 0 441.33334 518.66669"
   height="518.66669"
   width="441.33334"
   xml:space="preserve"
   id="svg2"
   version="1.1"><metadata
     id="metadata8"><rdf:RDF><cc:Work
         rdf:about=""><dc:format>image/svg+xml</dc:format><dc:type
           rdf:resource="http://purl.org/dc/dcmitype/StillImage" /></cc:Work></rdf:RDF></metadata><defs
     id="defs6"><clipPath
       id="clipPath20"
       clipPathUnits="userSpaceOnUse"><path
         id="path18"
         d="M 0,3887.32 H 3310 V 7.32031 H 0 Z" /></clipPath></defs><g
     transform="matrix(1.3333333,0,0,-1.3333333,0,518.66667)"
     id="g10"><g
       transform="scale(0.1)"
       id="g12"><g
         id="g14"><g
           clip-path="url(#clipPath20)"
           id="g16"><path
             id="path22"
             style="fill:#000000;fill-opacity:1;fill-rule:nonzero;stroke:none"
             d="m 2855.78,3573.34 h -195.66 v 147.77 c 0,91.76 -74.46,166.21 -166.25,166.21 h -60.43 c -91.8,0 -166.21,-74.45 -166.21,-166.21 V 3573.34 H 1104.38 v 147.77 c 0,91.76 -74.42,166.21 -166.22,166.21 h -60.43 c -91.789,0 -166.21,-74.45 -166.21,-166.21 V 3573.34 H 448.75 C 201.328,3573.34 0,3372.01 0,3124.55 V 458.77 C 0,211.301 201.328,10.0195 448.75,10.0195 h 2407.03 c 247.46,0 448.79,201.2815 448.79,448.7505 v 2665.78 c 0,247.46 -201.33,448.79 -448.79,448.79 z M 3034.3,458.77 c 0,-98.399 -80.08,-178.52 -178.52,-178.52 H 448.75 c -98.398,0 -178.48,80.121 -178.48,178.52 v 2665.78 c 0,98.43 80.082,178.51 178.48,178.51 h 262.77 v -212.3 c 0,-91.76 74.421,-166.21 166.21,-166.21 h 60.43 c 91.8,0 166.22,74.45 166.22,166.21 v 212.3 H 2267.23 V 3090.8 c 0,-91.8 74.41,-166.25 166.21,-166.25 h 60.43 c 91.83,0 166.25,74.45 166.25,166.25 v 212.26 h 195.66 c 98.44,0 178.52,-80.08 178.52,-178.51 z" /><path
             id="path24"
             style="fill:#000000;fill-opacity:1;fill-rule:nonzero;stroke:none"
             d="M 2566.95,2557.75 H 790.941 c -74.613,0 -135.121,-60.51 -135.121,-135.12 0,-74.65 60.508,-135.15 135.121,-135.15 H 2566.95 c 74.61,0 135.12,60.5 135.12,135.15 0,74.61 -60.51,135.12 -135.12,135.12 z" /><path
             id="path26"
             style="fill:#000000;fill-opacity:1;fill-rule:nonzero;stroke:none"
             d="M 2557.42,2021.73 H 781.449 c -74.648,0 -135.16,-60.5 -135.16,-135.11 0,-74.61 60.512,-135.12 135.16,-135.12 H 2557.42 c 74.65,0 135.16,60.51 135.16,135.12 0,74.61 -60.51,135.11 -135.16,135.11 z" /><path
             id="path28"
             style="fill:#000000;fill-opacity:1;fill-rule:nonzero;stroke:none"
             d="M 2547.93,1485.76 H 771.91 c -74.609,0 -135.109,-60.51 -135.109,-135.16 0,-74.61 60.5,-135.12 135.109,-135.12 h 1776.02 c 74.61,0 135.12,60.51 135.12,135.12 0,74.65 -60.51,135.16 -135.12,135.16 z" /><path
             id="path30"
             style="fill:#000000;fill-opacity:1;fill-rule:nonzero;stroke:none"
             d="M 2538.4,949.738 H 762.379 c -74.609,0 -135.109,-60.508 -135.109,-135.117 0,-74.641 60.5,-135.109 135.109,-135.109 H 2538.4 c 74.61,0 135.12,60.468 135.12,135.109 0,74.609 -60.51,135.117 -135.12,135.117 z" /></g></g></g></g></svg>