<?xml version="1.0" encoding="UTF-8" standalone="no"?>
<svg
   xmlns:dc="http://purl.org/dc/elements/1.1/"
   xmlns:cc="http://creativecommons.org/ns#"
   xmlns:rdf="http://www.w3.org/1999/02/22-rdf-syntax-ns#"
   xmlns:svg="http://www.w3.org/2000/svg"
   xmlns="http://www.w3.org/2000/svg"
   viewBox="0 0 517.17731 419.65601"
   height="419.65601"
   width="517.17731"
   xml:space="preserve"
   id="svg2"
   version="1.1"><metadata
     id="metadata8"><rdf:RDF><cc:Work
         rdf:about=""><dc:format>image/svg+xml</dc:format><dc:type
           rdf:resource="http://purl.org/dc/dcmitype/StillImage" /></cc:Work></rdf:RDF></metadata><defs
     id="defs6"><clipPath
       id="clipPath18"
       clipPathUnits="userSpaceOnUse"><path
         id="path16"
         d="M 0,314.742 H 387.883 V 0 H 0 Z" /></clipPath></defs><g
     transform="matrix(1.3333333,0,0,-1.3333333,0,419.656)"
     id="g10"><g
       id="g12"><g
         clip-path="url(#clipPath18)"
         id="g14"><path
           id="path20"
           style="fill:#000;fill-opacity:1;fill-rule:nonzero;stroke:none"
           d="m 120.652,197.027 h 93.137 v -35.563 h -93.137 z m -14,-110.777 c 7.731,0 14,6.269 14,14 v 33.218 h 93.137 v -31.304 c 0,-7.735 6.266,-14 14,-14 7.731,0 14,6.265 14,14 V 254.32 c 0,26.269 21.731,32.234 24.207,32.824 l -0.137,-0.027 v 0.008 c 6.172,1.461 10.77,6.992 10.77,13.613 0,7.734 -6.27,14.004 -14.004,14.004 -0.93,0 -1.836,-0.098 -2.719,-0.27 v 0.004 c -0.008,-0.004 -0.015,-0.004 -0.023,-0.008 -0.145,-0.027 -0.285,-0.066 -0.43,-0.101 -16.062,-3.692 -45.664,-20.77 -45.664,-60.047 v -29.289 h -93.137 v 27.379 c 0,24.851 19.442,31.527 23.637,32.679 6.535,1.184 11.492,6.891 11.492,13.766 0,7.734 -6.269,14.004 -14.004,14.004 -1.031,0 -2.031,-0.117 -3,-0.328 l -0.007,0.035 C 122.82,309.093 92.652,292.05 92.652,252.41 V 100.254 c 0,-7.735 6.266,-14.004 14,-14.004" /><g
           transform="translate(16.3365,49.015)"
           id="g22"><path
             id="path24"
             style="fill:#373535;fill-opacity:1;fill-rule:nonzero;stroke:none"
             d="m 0,0 c 18.148,11.492 42.008,23.801 48.59,23.801 3.336,0 11.383,-6.144 16.707,-10.207 9.816,-7.496 19.969,-15.242 31.269,-15.242 10.59,0 21.008,6.906 32.036,14.219 7.82,5.183 17.55,11.636 22.91,11.636 5.468,0 15.172,-6.726 22.972,-12.133 10.305,-7.14 20.035,-13.886 29.789,-13.886 9.786,0 18.844,6.683 28.434,13.758 7.945,5.863 16.953,12.507 23.246,12.507 6.246,0 15.254,-6.546 23.203,-12.32 C 288.965,5 298.23,-1.73 308.281,-1.73 c 16.156,0 47.77,20.984 57.074,27.418 4.836,3.34 6.043,9.969 2.704,14.801 -3.34,4.835 -9.969,6.043 -14.801,2.703 -16.52,-11.418 -38.532,-23.645 -44.977,-23.645 -3.137,0 -11.25,5.895 -16.617,9.797 -10.57,7.68 -22.547,16.387 -35.711,16.387 -13.293,0 -25.293,-8.852 -35.883,-16.664 -4.851,-3.582 -12.976,-9.575 -15.797,-9.602 -3.109,0.004 -12.222,6.324 -17.668,10.098 -11.293,7.828 -22.972,15.922 -35.093,15.922 -11.778,0 -23.414,-7.715 -34.672,-15.18 -6.793,-4.508 -16.098,-10.68 -20.278,-10.68 -4.105,0 -12.343,6.289 -18.355,10.879 C 68.824,37.668 59.117,45.078 48.59,45.078 32.629,45.078 -1.356,24.332 -11.391,17.977 -16.352,14.832 -17.828,8.258 -14.684,3.293 -11.539,-1.668 -4.965,-3.144 0,0" /></g><g
           transform="translate(385.9965,42.304)"
           id="g26"><path
             id="path28"
             style="fill:#373535;fill-opacity:1;fill-rule:nonzero;stroke:none"
             d="m 0,0 c -3.344,4.832 -9.969,6.043 -14.805,2.703 -16.515,-11.421 -38.531,-23.644 -44.976,-23.644 -3.133,0 -11.246,5.894 -16.613,9.797 -10.571,7.679 -22.551,16.387 -35.715,16.387 -13.293,0 -25.293,-8.852 -35.879,-16.665 -4.856,-3.582 -12.981,-9.574 -15.797,-9.601 -3.113,0.004 -12.223,6.32 -17.668,10.098 -11.293,7.828 -22.973,15.921 -35.098,15.921 -11.773,0 -23.414,-7.718 -34.668,-15.183 -6.797,-4.504 -16.101,-10.676 -20.277,-10.676 -4.109,0 -12.344,6.289 -18.355,10.879 -9.387,7.164 -19.09,14.574 -29.622,14.574 -15.961,0 -49.941,-20.746 -59.976,-27.105 -4.965,-3.145 -6.438,-9.715 -3.293,-14.68 3.144,-4.961 9.715,-6.437 14.68,-3.293 18.148,11.492 42.004,23.797 48.589,23.797 3.336,0 11.383,-6.141 16.707,-10.207 9.817,-7.492 19.969,-15.242 31.27,-15.242 10.59,0 21.008,6.91 32.035,14.222 7.82,5.184 17.551,11.637 22.91,11.637 5.469,0 15.172,-6.726 22.973,-12.133 10.305,-7.144 20.035,-13.89 29.789,-13.89 9.785,0 18.844,6.683 28.43,13.761 7.949,5.86 16.957,12.508 23.25,12.508 6.246,0 15.254,-6.547 23.203,-12.324 9.808,-7.129 19.074,-13.863 29.125,-13.863 16.156,0 47.769,20.988 57.074,27.422 C 2.129,-11.461 3.34,-4.832 0,0" /></g></g></g></g></svg>