<?xml version="1.0" encoding="UTF-8" standalone="no"?>
<svg
   xmlns:dc="http://purl.org/dc/elements/1.1/"
   xmlns:cc="http://creativecommons.org/ns#"
   xmlns:rdf="http://www.w3.org/1999/02/22-rdf-syntax-ns#"
   xmlns:svg="http://www.w3.org/2000/svg"
   xmlns="http://www.w3.org/2000/svg"
   viewBox="0 0 520 377.33334"
   height="377.33334"
   width="520"
   xml:space="preserve"
   id="svg2"
   version="1.1"><metadata
     id="metadata8"><rdf:RDF><cc:Work
         rdf:about=""><dc:format>image/svg+xml</dc:format><dc:type
           rdf:resource="http://purl.org/dc/dcmitype/StillImage" /></cc:Work></rdf:RDF></metadata><defs
     id="defs6"><clipPath
       id="clipPath20"
       clipPathUnits="userSpaceOnUse"><path
         id="path18"
         d="M 0,2821.99 H 3900 V 1.98828 H 0 Z" /></clipPath></defs><g
     transform="matrix(1.3333333,0,0,-1.3333333,0,377.33333)"
     id="g10"><g
       transform="scale(0.1)"
       id="g12"><g
         id="g14"><g
           clip-path="url(#clipPath20)"
           id="g16"><path
             id="path22"
             style="fill:#000000;fill-opacity:1;fill-rule:nonzero;stroke:none"
             d="M 1596.8,1303.79 H 480.199 c -82.39,0 -149.148,-66.76 -149.148,-149.1 V 698.398 c 0,-82.378 66.758,-149.136 149.148,-149.136 H 1596.8 c 82.42,0 149.18,66.758 149.18,149.136 v 456.292 c 0,82.34 -66.76,149.1 -149.18,149.1 z" /><path
             id="path24"
             style="fill:#000000;fill-opacity:1;fill-rule:nonzero;stroke:none"
             d="m 2076.88,1476.17 c 0,165.51 -55.2,218.87 -145.2,292.19 l -1.91,1.56 c -100.75,82.11 -183.91,147.19 -261.8,204.92 -5.24,3.91 -17.46,14.18 -17.46,25.75 v 345.78 h 79.69 v 199.8 h -0.2 c -0.43,152.38 -124.06,275.82 -276.6,275.82 H 623.48 c -152.781,0 -276.64,-123.87 -276.64,-276.64 h 0.109 v -198.98 h 79.571 v -345.08 c 0,-11.52 -12.219,-21.84 -17.461,-25.7 -77.848,-57.7 -161.047,-122.86 -261.789,-204.93 l -1.879,-1.56 C 55.3516,1695.78 0.160156,1642.42 0.160156,1476.91 c 0,-65.89 -0.039062,-340.82 -0.082031,-606.25 C 0.0390625,622.93 0,383.48 0,329.922 0,173.012 119.379,10.7383 319.18,10.7383 h 725.55 c 0,0 644.37,-0.7383 713.08,-0.7383 199.81,0 319.18,162.301 319.18,319.219 l -0.08,540.742 c 0,265.429 -0.03,540.349 -0.03,606.209 z M 1757.81,210.352 c -68.67,0 -712.85,0.699 -712.97,0.699 H 319.18 c -87.192,0 -118.828,71.097 -118.828,118.871 0,53.519 0.039,293.008 0.078,540.699 0.039,265.469 0.082,540.399 0.082,606.289 0,78.71 2.687,80.9 71.398,136.88 l 1.918,1.52 c 98.363,80.16 179.223,143.48 254.531,199.3 62.621,46.41 98.52,114.45 98.52,186.68 v 345.08 h 823.281 v -345.78 c 0,-72.23 35.89,-140.28 98.51,-186.68 75.35,-55.86 156.25,-119.18 254.57,-199.3 l 1.88,-1.56 c 68.71,-55.98 71.4,-58.17 71.4,-136.88 0,-65.86 0.04,-340.82 0.08,-606.248 l 0.08,-540.742 C 1876.64,281.41 1845,210.352 1757.81,210.352 Z" /><path
             id="path26"
             style="fill:#000000;fill-opacity:1;fill-rule:nonzero;stroke:none"
             d="m 3578.24,766.949 -2.19,0.16 -967.5,0.942 c -188.51,0 -341.91,-153.36 -341.91,-341.922 0,-188.508 153.4,-341.8673 341.91,-341.8673 h 0.04 l 965.24,0.9375 4.41,0.1524 c 176.76,13.707 315.24,163.3984 315.24,340.7774 0,177.422 -138.48,327.109 -315.24,340.82 z M 2608.52,200.27 c -124.54,0.039 -225.86,101.332 -225.86,225.859 0,124.57 101.32,225.902 225.82,225.902 l 481.44,-0.472 V 200.738 Z" /><path
             id="path28"
             style="fill:#000000;fill-opacity:1;fill-rule:nonzero;stroke:none"
             d="m 2619.57,811.328 v 0 c 24.61,0 49.34,2.692 73.48,8.012 l 2.18,0.5 926.14,279.77 c 87.42,26.52 159.25,85.47 202.34,166.01 43.05,80.51 52.19,173.01 25.67,260.4 -44.03,145.23 -175.47,242.81 -327.08,242.81 -33.55,0 -66.95,-4.96 -99.37,-14.81 l -923.44,-280.93 -4.18,-1.45 c -165.19,-64.37 -254.26,-247.81 -202.77,-417.58 43.98,-145.189 175.43,-242.689 327.03,-242.732 z m 837.07,831.682 c 21.45,6.48 43.52,9.76 65.66,9.76 98.56,0 187.43,-65.97 216.06,-160.39 17.5,-57.77 11.44,-118.86 -16.99,-172.07 -28.44,-53.2 -75.9,-92.15 -133.6,-109.65 l -460.86,-139.21 -130.82,431.44 z" /></g></g></g></g></svg>