<?xml version="1.0" encoding="UTF-8" standalone="no"?>
<svg
   xmlns:dc="http://purl.org/dc/elements/1.1/"
   xmlns:cc="http://creativecommons.org/ns#"
   xmlns:rdf="http://www.w3.org/1999/02/22-rdf-syntax-ns#"
   xmlns:svg="http://www.w3.org/2000/svg"
   xmlns="http://www.w3.org/2000/svg"
   viewBox="0 0 512 513.33331"
   height="513.33331"
   width="512"
   xml:space="preserve"
   id="svg2"
   version="1.1"><metadata
     id="metadata8"><rdf:RDF><cc:Work
         rdf:about=""><dc:format>image/svg+xml</dc:format><dc:type
           rdf:resource="http://purl.org/dc/dcmitype/StillImage" /></cc:Work></rdf:RDF></metadata><defs
     id="defs6"><clipPath
       id="clipPath20"
       clipPathUnits="userSpaceOnUse"><path
         id="path18"
         d="M 0,3840.58 H 3840 V 0.582031 H 0 Z" /></clipPath></defs><g
     transform="matrix(1.3333333,0,0,-1.3333333,0,513.33333)"
     id="g10"><g
       transform="scale(0.1)"
       id="g12"><g
         id="g14"><g
           clip-path="url(#clipPath20)"
           id="g16"><path
             id="path22"
             style="fill:#000000;fill-opacity:1;fill-rule:nonzero;stroke:none"
             d="m 3277.81,3271.47 c -356.33,360.55 -831.4,562.66 -1337.61,569.11 -0.59,0 -1.22,0 -1.84,0 -1.56,0 -3.09,-0.2 -4.65,-0.24 -6.05,0.12 -12.15,0.24 -18.24,0.24 -9.77,0 -19.53,-0.12 -29.26,-0.39 C 1381.09,3832.57 907.27,3630.11 551.949,3269.95 196.02,2909.17 0,2431.55 0,1925.11 0,1418.04 196.449,939.988 553.121,579.09 909.488,218.539 1384.53,16.4414 1890.78,9.98828 c 0.63,0 1.21,0 1.8,0 1.56,0 3.08,0.20312 4.65,0.23052 6.09,-0.0704 12.15,-0.23052 18.24,-0.23052 9.8,0 19.61,0.12112 29.33,0.39062 C 2449.92,18 2923.67,220.5 3278.98,580.609 c 355.94,360.789 552,838.401 552,1344.891 0,507.07 -196.45,985.08 -553.17,1345.97 z M 1915.47,741.828 c -163.32,0 -295.9,132.57 -295.9,295.892 0,163.36 132.58,295.94 295.9,295.94 163.36,0 295.94,-132.58 295.94,-295.94 0,-163.322 -132.58,-295.892 -295.94,-295.892 z m 0,1323.672 c -566.68,0 -1027.74,-461.06 -1027.74,-1027.78 v -0.35 c 0,-0.82 0.04,-1.6 0.04,-2.42 0.039,-8.55 0.16,-17.07 0.351,-25.59 0.16,-4.41 0.359,-8.82 0.508,-13.2 0.199,-4.84 0.391,-9.648 0.672,-14.449 0.269,-5.512 0.66,-10.981 1.008,-16.449 0.242,-3.434 0.472,-6.91 0.781,-10.391 0.512,-6.402 1.058,-12.812 1.68,-19.18 0.199,-2.031 0.429,-4.101 0.628,-6.132 C 906.41,804.641 941.84,684.359 997.852,573.781 565.27,869.25 280,1366.28 280,1925.11 c 0,888.71 722.77,1622.22 1611.25,1635.11 0.66,0 1.33,0.04 2.03,0.04 7.34,0.24 14.77,0.32 22.19,0.32 63.87,0 125.86,-8.05 185.08,-23.21 310.31,-80.39 545,-357.93 561.72,-686.56 0.62,-12.5 0.93,-25.12 0.93,-37.77 -0.08,-412.23 -335.47,-747.54 -747.73,-747.54 z" /><path
             id="path24"
             style="fill:#000000;fill-opacity:1;fill-rule:nonzero;stroke:none"
             d="m 1915.47,3108.74 c -163.32,0 -295.9,-132.54 -295.9,-295.9 0,-163.32 132.58,-295.9 295.9,-295.9 163.36,0 295.94,132.58 295.94,295.9 0,163.36 -132.58,295.9 -295.94,295.9 z" /></g></g></g></g></svg>