<?xml version="1.0" encoding="UTF-8" standalone="no"?>
<svg
   xmlns:dc="http://purl.org/dc/elements/1.1/"
   xmlns:cc="http://creativecommons.org/ns#"
   xmlns:rdf="http://www.w3.org/1999/02/22-rdf-syntax-ns#"
   xmlns:svg="http://www.w3.org/2000/svg"
   xmlns="http://www.w3.org/2000/svg"
   viewBox="0 0 460.96933 226.53067"
   height="226.53067"
   width="460.96933"
   xml:space="preserve"
   id="svg2"
   version="1.1"><metadata
     id="metadata8"><rdf:RDF><cc:Work
         rdf:about=""><dc:format>image/svg+xml</dc:format><dc:type
           rdf:resource="http://purl.org/dc/dcmitype/StillImage" /></cc:Work></rdf:RDF></metadata><defs
     id="defs6"><clipPath
       id="clipPath18"
       clipPathUnits="userSpaceOnUse"><path
         id="path16"
         d="M 0,169.898 H 345.727 V 0 H 0 Z" /></clipPath></defs><g
     transform="matrix(1.3333333,0,0,-1.3333333,0,226.53067)"
     id="g10"><g
       id="g12"><g
         clip-path="url(#clipPath18)"
         id="g14"><g
           transform="translate(329.141,133.691)"
           id="g20"><path
             id="path22"
             style="fill:#000;fill-opacity:1;fill-rule:nonzero;stroke:none"
             d="M 0,0 C -5.223,0 -9.879,-2.418 -12.918,-6.187 V 4.868 c 0,9.164 -7.426,16.585 -16.586,16.585 -6.703,0 -12.469,-3.976 -15.086,-9.695 v 7.863 c 0,9.161 -7.426,16.586 -16.586,16.586 -9.164,0 -16.59,-7.425 -16.59,-16.586 v -51.777 h -157.023 v 51.777 c 0,9.161 -7.426,16.586 -16.586,16.586 -9.164,0 -16.59,-7.425 -16.59,-16.586 v -7.863 c -2.614,5.723 -8.383,9.695 -15.086,9.695 -9.16,0 -16.586,-7.421 -16.586,-16.585 V -6.187 c -3.039,3.769 -7.695,6.187 -12.918,6.187 -9.16,0 -16.586,-7.429 -16.586,-16.589 v -64.305 c 0,-9.16 7.426,-16.59 16.586,-16.59 5.223,0 9.879,2.418 12.918,6.187 v -11.054 c 0,-9.16 7.426,-16.586 16.586,-16.586 6.703,0 12.472,3.976 15.086,9.695 v -7.863 c 0,-9.16 7.426,-16.586 16.59,-16.586 9.16,0 16.586,7.426 16.586,16.586 v 51.777 h 157.023 v -51.777 c 0,-9.16 7.426,-16.586 16.586,-16.586 9.164,0 16.586,7.426 16.586,16.586 v 7.863 c 2.617,-5.719 8.387,-9.695 15.09,-9.695 9.16,0 16.586,7.426 16.586,16.586 v 11.054 c 3.039,-3.769 7.695,-6.187 12.918,-6.187 9.16,0 16.586,7.43 16.586,16.59 v 64.305 C 16.586,-7.429 9.16,0 0,0" /></g></g></g></g></svg>