<?xml version="1.0" encoding="UTF-8" standalone="no"?>
<svg
   xmlns:dc="http://purl.org/dc/elements/1.1/"
   xmlns:cc="http://creativecommons.org/ns#"
   xmlns:rdf="http://www.w3.org/1999/02/22-rdf-syntax-ns#"
   xmlns:svg="http://www.w3.org/2000/svg"
   xmlns="http://www.w3.org/2000/svg"
   viewBox="0 0 448 504"
   height="504"
   width="448"
   xml:space="preserve"
   id="svg2"
   version="1.1"><metadata
     id="metadata8"><rdf:RDF><cc:Work
         rdf:about=""><dc:format>image/svg+xml</dc:format><dc:type
           rdf:resource="http://purl.org/dc/dcmitype/StillImage" /></cc:Work></rdf:RDF></metadata><defs
     id="defs6"><clipPath
       id="clipPath20"
       clipPathUnits="userSpaceOnUse"><path
         id="path18"
         d="M 0,3777.46 H 3360 V 7.46094 H 0 Z" /></clipPath></defs><g
     transform="matrix(1.3333333,0,0,-1.3333333,0,504)"
     id="g10"><g
       transform="scale(0.1)"
       id="g12"><g
         id="g14"><g
           clip-path="url(#clipPath20)"
           id="g16"><path
             id="path22"
             style="fill:#000000;fill-opacity:1;fill-rule:nonzero;stroke:none"
             d="m 3145.43,1117.07 h -76.45 c 161.49,70.62 287.7,205.74 287.7,367.5 0,239.3 -105.94,340 -205.27,397.81 -80.55,54.22 -179.14,86.52 -286.06,86.52 -7.42,0 -185.97,-0.11 -185.97,-0.11 l -299.34,-285.9 c -65.2,-62.31 -142.11,-87.58 -171.8,-56.56 l -40.31,42.22 c -29.65,31.06 -0.86,106.76 64.34,169.03 l 239.8,229.06 c -37.27,26.37 -75.51,57.03 -114.18,90.78 l -366.01,-349.61 c -65.24,-62.3 -142.11,-87.58 -171.8,-56.52 l -40.31,42.18 c -29.69,31.06 -0.86,106.76 64.33,169.03 l 358.83,342.77 c -37.58,38.48 -74.81,78.2 -111.25,118.17 l -243.83,-232.89 -221.72,-211.8 c -65.19,-62.31 -142.11,-87.58 -171.75,-56.56 l -40.32,42.22 c -29.68,31.06 -0.9,106.76 64.3,169.03 0,0 165.27,181.28 244.65,251.01 79.33,69.73 226.56,199.06 226.56,199.06 -54.41,62.58 -104.77,121.41 -148.95,171.57 38.52,320.7 101.76,786.48 -38.12,959.25 -184.1,227.43 -329.22,-231.68 -535.04,-245.19 C 1095.9,3460.47 725.23,3507.19 475,3541.95 333.871,3561.6 223.551,3447.26 227.301,3263.47 235.59,2854.53 317.34,2310.15 187.73,2082.81 72.9688,1881.48 -135.738,1238.28 126.52,1093.83 58.7109,1058.98 12.3398,988.359 12.3398,906.91 12.3398,812.262 74.9219,732.262 160.941,705.941 144.84,655.039 136.09,600.941 136.09,544.762 136.09,249.922 375.98,10 670.859,10 c 131.09,0 251.211,47.4609 344.301,126.012 92.65,-76.9534 211.6,-123.3206 341.17,-123.3206 131.05,0 251.21,47.5 344.29,126.0196 92.66,-76.9493 211.61,-123.2813 341.18,-123.2813 128.82,0 247.18,45.7812 339.61,121.9493 93.32,-79.3282 214.06,-127.3399 345.86,-127.3399 294.88,0 534.76,239.8829 534.76,534.7619 0,59.918 -10.04,117.539 -28.32,171.371 71.95,33.359 121.88,106.207 121.88,190.738 0,116.06 -94.07,210.16 -210.16,210.16 z M 670.859,394.102 c -83.089,0 -150.699,67.578 -150.699,150.66 0,83.09 67.61,150.707 150.699,150.707 83.09,0 150.7,-67.617 150.7,-150.707 0,-83.082 -67.61,-150.66 -150.7,-150.66 z m 685.471,2.699 c -83.09,0 -150.67,67.57 -150.67,150.699 0,76.398 57.23,139.57 131.02,149.219 h 39.3 c 73.79,-9.649 131.01,-72.821 131.01,-149.219 0,-83.129 -67.58,-150.699 -150.66,-150.699 z m 685.47,2.73 c -83.09,0 -150.71,67.578 -150.71,150.66 0,71.18 49.69,130.86 116.18,146.528 h 69.06 c 66.48,-15.668 116.13,-75.348 116.13,-146.528 0,-83.082 -67.58,-150.66 -150.66,-150.66 z m 685.47,-5.39 c -83.09,0 -150.71,67.578 -150.71,150.66 0,83.09 67.62,150.711 150.71,150.711 83.08,0 150.66,-67.621 150.66,-150.711 0,-83.082 -67.58,-150.66 -150.66,-150.66 z" /></g></g></g></g></svg>