<?xml version="1.0" encoding="UTF-8" standalone="no"?>
<svg
   xmlns:dc="http://purl.org/dc/elements/1.1/"
   xmlns:cc="http://creativecommons.org/ns#"
   xmlns:rdf="http://www.w3.org/1999/02/22-rdf-syntax-ns#"
   xmlns:svg="http://www.w3.org/2000/svg"
   xmlns="http://www.w3.org/2000/svg"
   viewBox="0 0 64.781334 85.333336"
   height="85.333336"
   width="64.781334"
   xml:space="preserve"
   id="svg2"
   version="1.1"><metadata
     id="metadata8"><rdf:RDF><cc:Work
         rdf:about=""><dc:format>image/svg+xml</dc:format><dc:type
           rdf:resource="http://purl.org/dc/dcmitype/StillImage" /></cc:Work></rdf:RDF></metadata><defs
     id="defs6"><clipPath
       id="clipPath18"
       clipPathUnits="userSpaceOnUse"><path
         id="path16"
         d="M 0,64 H 48.586 V 0 H 0 Z" /></clipPath></defs><g
     transform="matrix(1.3333333,0,0,-1.3333333,0,85.333333)"
     id="g10"><g
       id="g12"><g
         clip-path="url(#clipPath18)"
         id="g14"><g
           transform="translate(29.7432,20.0703)"
           id="g20"><path
             id="path22"
             style="fill:#a6df3a;fill-opacity:1;fill-rule:nonzero;stroke:none"
             d="M 0,0 -5.45,-8.517 -10.901,0 c -8.56,2.387 -14.842,10.25 -14.842,19.586 0,11.23 9.085,20.335 20.293,20.335 11.207,0 20.293,-9.105 20.293,-20.335 C 14.843,10.25 8.559,2.387 0,0 m -5.45,43.93 c -13.396,0 -24.293,-10.921 -24.293,-24.344 0,-10.355 6.609,-19.584 16.257,-22.971 l 4.669,-7.296 c 0.735,-1.149 2.004,-1.844 3.367,-1.844 1.362,0 2.631,0.695 3.366,1.844 l 4.67,7.296 C 12.232,0.002 18.843,9.231 18.843,19.586 18.843,33.009 7.945,43.93 -5.45,43.93" /></g><g
           transform="translate(9.9454,39.6563)"
           id="g24"><path
             id="path26"
             style="fill:#a6df3a;fill-opacity:1;fill-rule:nonzero;stroke:none"
             d="m 0,0 c 0,7.928 6.436,14.378 14.348,14.378 1.725,0 3.413,-0.304 5.014,-0.903 0.69,-0.258 1.458,0.094 1.716,0.785 0.257,0.692 -0.093,1.461 -0.783,1.719 -1.9,0.711 -3.902,1.071 -5.947,1.071 C 4.966,17.05 -2.667,9.402 -2.667,0 c 0,-4.471 1.716,-8.697 4.83,-11.899 0.262,-0.269 0.607,-0.404 0.955,-0.404 0.335,0 0.671,0.127 0.93,0.38 0.527,0.515 0.539,1.36 0.025,1.889 C 1.446,-7.334 0,-3.77 0,0" /></g><g
           transform="translate(41.001,42.8931)"
           id="g28"><path
             id="path30"
             style="fill:#a6df3a;fill-opacity:1;fill-rule:nonzero;stroke:none"
             d="m 0,0 c -0.141,0.725 -0.838,1.199 -1.564,1.058 -0.722,-0.141 -1.195,-0.842 -1.055,-1.566 0.172,-0.887 0.26,-1.805 0.26,-2.729 0,-7.927 -6.438,-14.377 -14.349,-14.377 -2.186,0 -4.284,0.479 -6.236,1.425 -0.663,0.321 -1.461,0.043 -1.781,-0.622 -0.32,-0.664 -0.043,-1.463 0.62,-1.784 2.318,-1.122 4.806,-1.691 7.397,-1.691 9.382,0 17.015,7.648 17.015,17.049 C 0.307,-2.143 0.203,-1.055 0,0" /></g><g
           transform="translate(36.5987,47.0567)"
           id="g32"><path
             id="path34"
             style="fill:#a6df3a;fill-opacity:1;fill-rule:nonzero;stroke:none"
             d="m 0,0 c 0.25,-0.417 0.691,-0.648 1.145,-0.648 0.233,0 0.47,0.062 0.685,0.191 0.631,0.381 0.835,1.202 0.455,1.834 C 1.273,3.063 -0.012,4.551 -1.533,5.798 -2.104,6.265 -2.943,6.181 -3.409,5.609 -3.875,5.038 -3.791,4.197 -3.222,3.729 -1.937,2.677 -0.854,1.422 0,0" /></g><g
           transform="translate(32.712,4.0083)"
           id="g36"><path
             id="path38"
             style="fill:#a6df3a;fill-opacity:1;fill-rule:nonzero;stroke:none"
             d="m 0,0 h -16.84 c -1.104,0 -2,-0.897 -2,-2.004 0,-1.107 0.896,-2.004 2,-2.004 H 0 c 1.105,0 2,0.897 2,2.004 C 2,-0.897 1.105,0 0,0" /></g></g></g></g></svg>