<?xml version="1.0" encoding="utf-8"?>
<!-- Generator: Adobe Illustrator 16.0.1, SVG Export Plug-In . SVG Version: 6.00 Build 0)  -->
<!DOCTYPE svg PUBLIC "-//W3C//DTD SVG 1.1//EN" "http://www.w3.org/Graphics/SVG/1.1/DTD/svg11.dtd">
<svg version="1.1" id="Слой_1" xmlns="http://www.w3.org/2000/svg" xmlns:xlink="http://www.w3.org/1999/xlink" x="0px" y="0px"
	 width="512px" height="512px" viewBox="0 0 512 512" enable-background="new 0 0 512 512" xml:space="preserve">
<g>
	<defs>
		<rect id="SVGID_1_" width="512" height="512"/>
	</defs>
	<clipPath id="SVGID_2_">
		<use xlink:href="#SVGID_1_"  overflow="visible"/>
	</clipPath>
	<path clip-path="url(#SVGID_2_)" fill="#439ACF" d="M64,0h384c35.346,0,64,28.654,64,64v384c0,35.346-28.654,64-64,64H64
		c-35.346,0-64-28.654-64-64V64C0,28.654,28.654,0,64,0"/>
	<path clip-path="url(#SVGID_2_)" fill="#FFFFFF" d="M420.569,285.046c1.65-9.414,2.518-19.1,2.518-28.983
		c0-91.972-74.555-166.527-166.526-166.527c-9.901,0-19.599,0.871-29.021,2.525c-14.619-8.464-31.575-13.331-49.68-13.331
		c-54.853,0-99.318,44.464-99.318,99.314c0,18.423,5.035,35.667,13.775,50.453c-1.493,8.968-2.282,18.175-2.282,27.566
		c0,91.969,74.558,166.525,166.526,166.525c9.653,0,19.114-0.832,28.318-2.411c14.523,8.316,31.329,13.095,49.262,13.095
		c54.851,0,99.317-44.468,99.317-99.317C433.458,316.165,428.758,299.486,420.569,285.046 M189.475,290.792
		c16.584-0.885,22.117,18.849,34.447,27.359c13.677,9.258,56.626,19.11,69.23-9.597c9.319-24.791-18.06-28.561-45.023-35.19
		c-41.269-8.833-75.82-19.48-75.518-61.651c-0.187-40.663,32.002-57.392,62.965-60.199c36.819-3.279,63.991,4.45,84.136,20.846
		c23.486,20.037,10.816,41.921-5.965,42.384c-23.773,0.657-23.457-30.955-62.673-30.462c-33.897-0.527-49.415,32.116-14,43.548
		c49.661,13.115,89.477,11.521,102.314,53.403c9.869,39.165-13.866,75.685-71.771,80.371c-46.027,2.437-70.27-10.473-86.01-26.216
		C162.494,313.652,171.496,291.752,189.475,290.792"/>
</g>
</svg>
