<?xml version="1.0" encoding="utf-8"?>
<!-- Generator: Adobe Illustrator 16.0.1, SVG Export Plug-In . SVG Version: 6.00 Build 0)  -->
<!DOCTYPE svg PUBLIC "-//W3C//DTD SVG 1.1//EN" "http://www.w3.org/Graphics/SVG/1.1/DTD/svg11.dtd">
<svg version="1.1" id="Слой_1" xmlns="http://www.w3.org/2000/svg" xmlns:xlink="http://www.w3.org/1999/xlink" x="0px" y="0px"
	 width="512px" height="512px" viewBox="0 0 512 512" enable-background="new 0 0 512 512" xml:space="preserve">
<g>
	<defs>
		<rect id="SVGID_1_" width="512" height="512"/>
	</defs>
	<clipPath id="SVGID_2_">
		<use xlink:href="#SVGID_1_"  overflow="visible"/>
	</clipPath>
	<path clip-path="url(#SVGID_2_)" fill="#7B519D" d="M64,0h384c35.346,0,64,28.654,64,64v384c0,35.346-28.654,64-64,64H64
		c-35.346,0-64-28.654-64-64V64C0,28.654,28.654,0,64,0"/>
	<path clip-path="url(#SVGID_2_)" fill="#FFFFFF" d="M384.431,325.246c-9.442-7.601-19.532-14.424-29.464-21.394
		c-19.81-13.913-37.928-14.993-52.708,7.389c-8.3,12.567-19.92,13.117-32.069,7.604c-33.495-15.188-59.359-38.588-74.509-72.632
		c-6.702-15.061-6.614-28.565,9.067-39.218c8.301-5.633,16.666-12.3,15.997-24.61c-0.874-16.051-39.846-69.692-55.236-75.354
		c-6.368-2.343-12.71-2.191-19.189-0.013c-36.088,12.136-51.035,41.815-36.72,76.956c42.705,104.842,117.861,177.83,221.315,222.378
		c5.897,2.537,12.45,3.551,15.77,4.461c23.553,0.237,51.144-22.456,59.113-44.978C413.47,344.17,397.256,335.569,384.431,325.246z"
		/>
	<path clip-path="url(#SVGID_2_)" fill="#FFFFFF" d="M268.432,117.78c75.632,11.631,110.513,47.594,120.146,123.771
		c0.892,7.036-1.729,17.624,8.31,17.819c10.492,0.2,7.964-10.231,8.052-17.274c0.888-71.744-61.67-138.254-134.319-140.707
		c-5.481,0.789-16.823-3.78-17.531,8.505C252.617,118.178,262.166,116.816,268.432,117.78z"/>
	<path clip-path="url(#SVGID_2_)" fill="#FFFFFF" d="M283.226,138.667c-7.275-0.876-16.879-4.304-18.579,5.791
		c-1.773,10.594,8.929,9.518,15.807,11.057c46.714,10.44,62.978,27.443,70.668,73.778c1.124,6.756-1.107,17.27,10.372,15.527
		c8.509-1.295,5.436-10.308,6.147-15.573C368.018,184.762,329.897,144.271,283.226,138.667z"/>
	<path clip-path="url(#SVGID_2_)" fill="#FFFFFF" d="M287.516,175.044c-4.856,0.12-9.623,0.646-11.407,5.835
		c-2.682,7.756,2.958,9.605,8.698,10.527c19.162,3.077,29.246,14.376,31.16,33.484c0.518,5.187,3.809,9.389,8.819,8.798
		c6.942-0.828,7.569-7.008,7.357-12.876C332.486,199.344,308.221,174.53,287.516,175.044"/>
</g>
</svg>
